#!OML:ASF E:\acrobat2\Project_11_07_03\Capture day 1\Session 1\Acrobat.ASF
:FULLY-SPECIFIED
:DEGREES
611
root 10.777 6.03421 11.6559 -88.3924 3.84251 178.782
lowerback -4.8443 -3.34882 5.10002
upperback 0.412628 -4.8084 0.816231
thorax 2.79162 -2.33129 -2.33708
lowerneck 4.23835 -14.7078 -10.87
upperneck -28.8815 -15.5266 29.6927
head -5.47522 -8.34421 12.3421
rclavicle 1.27222e-014 -1.11816e-014
rhumerus 31.731 -33.7053 -32.2751
rradius 120.1
rwrist -23.1033
rhand -19.5352 -42.4191
rfingers 7.12502
rthumb 6.78855 -72.2903
lclavicle 1.27222e-014 -1.11816e-014
lhumerus 16.9951 48.2897 2.07903
lradius 108.379
lwrist 34.1062
lhand -5.29352 -25.0251
lfingers 7.12502
lthumb 20.5114 3.91142
rfemur 1.40544 15.7017 -8.7245
rtibia -1.27222e-014
rfoot 31.6949 -23.8315
rtoes 27.8953
lfemur -11.5274 -21.3932 3.11324
ltibia 18.5341
lfoot 37.4359 11.3558
ltoes 18.337
612
root 10.7762 6.03395 11.6557 -88.3903 3.86372 178.768
lowerback -4.85164 -3.3524 5.09183
upperback 0.419595 -4.81305 0.805822
thorax 2.80236 -2.33322 -2.34432
lowerneck 4.21645 -14.7112 -10.8651
upperneck -28.8682 -15.5214 29.7531
head -5.46078 -8.34684 12.3589
rclavicle 1.11319e-014 2.39039e-014
rhumerus 31.7332 -33.7301 -32.2837
rradius 120.108
rwrist -23.1146
rhand -19.5103 -42.4223
rfingers 7.12502
rthumb 6.81254 -72.2927
lclavicle 1.11319e-014 2.39039e-014
lhumerus 16.9752 48.3062 2.06435
lradius 108.378
lwrist 34.0965
lhand -5.23274 -25.1575
lfingers 7.12502
lthumb 20.5698 3.77268
rfemur 1.41509 15.688 -8.75222
rtibia 1.98785e-014
rfoot 31.604 -23.924
rtoes 28.126
lfemur -11.5375 -21.3943 3.08947
ltibia 18.5282
lfoot 37.4435 11.3626
ltoes 18.4558
613
root 10.7755 6.03394 11.6556 -88.3958 3.89646 178.753
lowerback -4.84864 -3.35838 5.06946
upperback 0.42867 -4.8194 0.79244
thorax 2.81023 -2.33625 -2.34625
lowerneck 4.20478 -14.7098 -10.8766
upperneck -28.8574 -15.5057 29.8546
head -5.44399 -8.34757 12.3951
rclavicle -9.54166e-015 -5.10628e-015
rhumerus 31.7418 -33.7622 -32.2897
rradius 120.107
rwrist -23.1375
rhand -19.4796 -42.4277
rfingers 7.12502
rthumb 6.84222 -72.2972
lclavicle -9.54166e-015 -5.10628e-015
lhumerus 16.9531 48.3299 2.03833
lradius 108.375
lwrist 34.0938
lhand -5.18184 -25.321
lfingers 7.12502
lthumb 20.6187 3.60388
rfemur 1.43304 15.676 -8.78951
rtibia -1.39149e-014
rfoot 31.4783 -24.0326
rtoes 28.4071
lfemur -11.5468 -21.3976 3.04985
ltibia 18.5317
lfoot 37.4544 11.3487
ltoes 18.3574
614
root 10.7747 6.03411 11.6557 -88.4074 3.93273 178.737
lowerback -4.83683 -3.36612 5.04191
upperback 0.438878 -4.82729 0.77847
thorax 2.81458 -2.34021 -2.34545
lowerneck 4.2406 -14.6853 -10.9102
upperneck -28.8926 -15.4632 29.8935
head -5.46158 -8.32864 12.4265
rclavicle 6.36111e-015 2.77926e-014
rhumerus 31.7583 -33.7928 -32.2917
rradius 120.098
rwrist -23.1607
rhand -19.454 -42.4381
rfingers 7.12502
rthumb 6.86687 -72.3067
lclavicle 6.36111e-015 2.77926e-014
lhumerus 16.9342 48.3568 2.01312
lradius 108.374
lwrist 34.0953
lhand -5.12867 -25.4719
lfingers 7.12502
lthumb 20.6698 3.44744
rfemur 1.45595 15.6664 -8.82541
rtibia -4.77083e-015
rfoot 31.377 -24.1053
rtoes 28.604
lfemur -11.5541 -21.4046 3.0042
ltibia 18.5439
lfoot 37.4579 11.3357
ltoes 18.1002
615
root 10.7738 6.03434 11.6558 -88.4198 3.96339 178.723
lowerback -4.82317 -3.37438 5.01984
upperback 0.449168 -4.83617 0.766767
thorax 2.81766 -2.34466 -2.34527
lowerneck 4.27618 -14.6566 -10.9494
upperneck -28.9226 -15.4151 29.9367
head -5.4776 -8.30712 12.4603
rclavicle 3.02153e-014 -2.33199e-014
rhumerus 31.7832 -33.814 -32.2951
rradius 120.085
rwrist -23.1737
rhand -19.4298 -42.4747
rfingers 7.12502
rthumb 6.89022 -72.3426
lclavicle 3.02153e-014 -2.33199e-014
lhumerus 16.9267 48.385 1.99945
lradius 108.371
lwrist 34.0987
lhand -5.05317 -25.5884
lfingers 7.12502
lthumb 20.7423 3.32304
rfemur 1.47802 15.6589 -8.8506
rtibia -1.90833e-014
rfoot 31.3168 -24.1192
rtoes 28.7337
lfemur -11.5601 -21.4148 2.96447
ltibia 18.5608
lfoot 37.4463 11.3423
ltoes 17.8827
616
root 10.7725 6.03452 11.656 -88.4275 3.98699 178.714
lowerback -4.81405 -3.38107 5.00623
upperback 0.457754 -4.84377 0.757869
thorax 2.82119 -2.34837 -2.34705
lowerneck 4.2974 -14.6288 -10.9832
upperneck -28.9363 -15.3713 29.9673
head -5.48736 -8.28649 12.485
rclavicle -9.54166e-015 2.32951e-014
rhumerus 31.8152 -33.8267 -32.2981
rradius 120.068
rwrist -23.1796
rhand -19.4168 -42.5373
rfingers 7.12502
rthumb 6.90282 -72.4048
lclavicle -9.54166e-015 2.32951e-014
lhumerus 16.9335 48.4141 1.99584
lradius 108.365
lwrist 34.113
lhand -4.95472 -25.6619
lfingers 7.12502
lthumb 20.8369 3.23916
rfemur 1.49226 15.654 -8.86662
rtibia -8.74653e-015
rfoot 31.3271 -24.0731
rtoes 28.731
lfemur -11.5647 -21.4327 2.9338
ltibia 18.5757
lfoot 37.4275 11.3897
ltoes 17.9045
617
root 10.7712 6.03461 11.6561 -88.4322 4.00502 178.709
lowerback -4.80772 -3.38473 5.00013
upperback 0.464557 -4.84795 0.751101
thorax 2.82427 -2.35031 -2.35071
lowerneck 4.29942 -14.6083 -11.0074
upperneck -28.9319 -15.3417 29.9811
head -5.48827 -8.27131 12.4965
rclavicle -4.13472e-014 4.04154e-014
rhumerus 31.8442 -33.8359 -32.2962
rradius 120.052
rwrist -23.1818
rhand -19.4211 -42.6092
rfingers 7.12502
rthumb 6.89866 -72.4768
lclavicle -4.13472e-014 4.04154e-014
lhumerus 16.955 48.441 2.00255
lradius 108.357
lwrist 34.1331
lhand -4.86316 -25.6745
lfingers 7.12502
lthumb 20.9249 3.2169
rfemur 1.50047 15.6514 -8.87548
rtibia 2.70347e-014
rfoot 31.4033 -23.9709
rtoes 28.5938
lfemur -11.564 -21.4648 2.91045
ltibia 18.5835
lfoot 37.4056 11.473
ltoes 18.203
618
root 10.7699 6.03474 11.6562 -88.4347 4.02697 178.705
lowerback -4.80242 -3.38598 4.99078
upperback 0.469536 -4.84866 0.743856
thorax 2.82653 -2.35061 -2.35287
lowerneck 4.28757 -14.5981 -11.0156
upperneck -28.9185 -15.3294 29.9739
head -5.48469 -8.26335 12.4937
rclavicle 6.20208e-014 -9.0944e-015
rhumerus 31.8623 -33.8417 -32.2884
rradius 120.041
rwrist -23.1793
rhand -19.4385 -42.6685
rfingers 7.12502
rthumb 6.88189 -72.5366
lclavicle 6.20208e-014 -9.0944e-015
lhumerus 16.9887 48.4627 2.02358
lradius 108.348
lwrist 34.1435
lhand -4.83795 -25.6159
lfingers 7.12502
lthumb 20.9491 3.27277
rfemur 1.50526 15.6483 -8.89118
rtibia 3.97569e-015
rfoot 31.482 -23.876
rtoes 28.4301
lfemur -11.5594 -21.5084 2.88435
ltibia 18.5825
lfoot 37.3675 11.5582
ltoes 18.5556
619
root 10.7687 6.03497 11.6564 -88.434 4.05708 178.7
lowerback -4.79917 -3.38625 4.97338
upperback 0.472927 -4.84753 0.734409
thorax 2.82887 -2.35009 -2.35281
lowerneck 4.26297 -14.5983 -11.0093
upperneck -28.8965 -15.3344 29.9494
head -5.47628 -8.26288 12.4783
rclavicle -1.43125e-014 4.46023e-015
rhumerus 31.8747 -33.8454 -32.2753
rradius 120.033
rwrist -23.1772
rhand -19.4681 -42.701
rfingers 7.12502
rthumb 6.85325 -72.5701
lclavicle -1.43125e-014 4.46023e-015
lhumerus 17.0229 48.4793 2.05191
lradius 108.342
lwrist 34.1413
lhand -4.89319 -25.5184
lfingers 7.12502
lthumb 20.896 3.37622
rfemur 1.50663 15.643 -8.92296
rtibia 9.14409e-015
rfoot 31.5222 -23.8422
rtoes 28.4101
lfemur -11.5566 -21.5535 2.85106
ltibia 18.5768
lfoot 37.318 11.6334
ltoes 18.8452
620
root 10.7676 6.03534 11.6565 -88.4332 4.08644 178.695
lowerback -4.79447 -3.38577 4.95674
upperback 0.476551 -4.84535 0.724752
thorax 2.83064 -2.34905 -2.35324
lowerneck 4.22541 -14.6078 -10.993
upperneck -28.8648 -15.3552 29.9124
head -5.46183 -8.26924 12.4527
rclavicle -5.08889e-014 2.23012e-014
rhumerus 31.8851 -33.851 -32.2598
rradius 120.026
rwrist -23.1762
rhand -19.5026 -42.7089
rfingers 7.12502
rthumb 6.82001 -72.579
lclavicle -5.08889e-014 2.23012e-014
lhumerus 17.049 48.4917 2.0798
lradius 108.339
lwrist 34.1317
lhand -4.94737 -25.4681
lfingers 7.12502
lthumb 20.844 3.43224
rfemur 1.50691 15.6369 -8.95955
rtibia 1.63003e-014
rfoot 31.5079 -23.8736
rtoes 28.5186
lfemur -11.5584 -21.5907 2.81891
ltibia 18.5749
lfoot 37.2799 11.6803
ltoes 19.0195
621
root 10.7667 6.03597 11.6568 -88.4353 4.11559 178.69
lowerback -4.78342 -3.38448 4.93831
upperback 0.481128 -4.84168 0.7159
thorax 2.83016 -2.34736 -2.35136
lowerneck 4.18132 -14.6242 -10.9705
upperneck -28.827 -15.3886 29.8625
head -5.444 -8.28089 12.4188
rclavicle 2.54444e-014 1.77664e-014
rhumerus 31.8925 -33.8612 -32.2436
rradius 120.019
rwrist -23.1725
rhand -19.5355 -42.6829
rfingers 7.12502
rthumb 6.78823 -72.5541
lclavicle 2.54444e-014 1.77664e-014
lhumerus 17.0644 48.5004 2.10246
lradius 108.343
lwrist 34.1212
lhand -5.03778 -25.4153
lfingers 7.12502
lthumb 20.7571 3.49451
rfemur 1.50843 15.633 -8.99822
rtibia 6.36111e-015
rfoot 31.4322 -23.966
rtoes 28.7714
lfemur -11.5651 -21.6133 2.78585
ltibia 18.5831
lfoot 37.2693 11.6636
ltoes 18.9644
622
root 10.7658 6.03676 11.6572 -88.4402 4.14148 178.685
lowerback -4.76833 -3.38299 4.92291
upperback 0.486592 -4.83778 0.708164
thorax 2.8282 -2.34556 -2.34974
lowerneck 4.13963 -14.6442 -10.9488
upperneck -28.7876 -15.4292 29.8096
head -5.42493 -8.29608 12.3834
rclavicle -3.18055e-014 1.84746e-014
rhumerus 31.8969 -33.878 -32.2313
rradius 120.014
rwrist -23.1678
rhand -19.5606 -42.625
rfingers 7.12502
rthumb 6.76402 -72.4969
lclavicle -3.18055e-014 1.84746e-014
lhumerus 17.0674 48.5073 2.1139
lradius 108.353
lwrist 34.1133
lhand -5.09011 -25.401
lfingers 7.12502
lthumb 20.7068 3.5143
rfemur 1.51236 15.6301 -9.03196
rtibia -7.55382e-015
rfoot 31.3329 -24.0835
rtoes 29.0611
lfemur -11.578 -21.6173 2.75508
ltibia 18.6032
lfoot 37.293 11.5736
ltoes 18.6872
623
root 10.7647 6.03748 11.6575 -88.4427 4.16579 178.68
lowerback -4.75735 -3.38127 4.91297
upperback 0.49188 -4.83407 0.698927
thorax 2.82777 -2.34371 -2.35297
lowerneck 4.10365 -14.6649 -10.9275
upperneck -28.7486 -15.4714 29.76
head -5.40621 -8.31287 12.3498
rclavicle -2.06736e-014 -8.4732e-015
rhumerus 31.8944 -33.9 -32.232
rradius 120.012
rwrist -23.1615
rhand -19.5682 -42.5608
rfingers 7.12502
rthumb 6.75668 -72.433
lclavicle -2.06736e-014 -8.4732e-015
lhumerus 17.0629 48.513 2.11552
lradius 108.368
lwrist 34.1119
lhand -5.09432 -25.4116
lfingers 7.12502
lthumb 20.7028 3.5041
rfemur 1.51346 15.6264 -9.06038
rtibia 3.57812e-015
rfoot 31.2714 -24.1585
rtoes 29.2665
lfemur -11.6 -21.6047 2.72531
ltibia 18.6345
lfoot 37.3433 11.432
ltoes 18.3029
624
root 10.7634 6.0379 11.6575 -88.4409 4.20215 178.681
lowerback -4.75384 -3.37845 4.8948
upperback 0.496323 -4.82855 0.684286
thorax 2.83099 -2.34091 -2.3576
lowerneck 4.07178 -14.6839 -10.9053
upperneck -28.7103 -15.5106 29.7137
head -5.3889 -8.32889 12.3182
rclavicle 6.36111e-015 5.34234e-015
rhumerus 31.8839 -33.9231 -32.2446
rradius 120.017
rwrist -23.1527
rhand -19.5659 -42.5055
rfingers 7.12502
rthumb 6.75889 -72.3776
lclavicle 6.36111e-015 5.34234e-015
lhumerus 17.0584 48.5189 2.11413
lradius 108.385
lwrist 34.1199
lhand -5.07497 -25.4405
lfingers 7.12502
lthumb 20.7214 3.47321
rfemur 1.50715 15.6249 -9.09926
rtibia 6.36111e-015
rfoot 31.2742 -24.1665
rtoes 29.2937
lfemur -11.626 -21.5883 2.68081
ltibia 18.6718
lfoot 37.399 11.2763
ltoes 17.9087
